<?xml version="1.0" encoding="UTF-8" standalone="no"?>
<!-- Created with Inkscape (http://www.inkscape.org/) -->

<svg
   version="1.1"
   id="svg1"
   width="376.15027"
   height="346.84235"
   viewBox="0 0 376.15027 346.84235"
   sodipodi:docname="Cat2.png"
   xmlns:inkscape="http://www.inkscape.org/namespaces/inkscape"
   xmlns:sodipodi="http://sodipodi.sourceforge.net/DTD/sodipodi-0.dtd"
   xmlns="http://www.w3.org/2000/svg"
   xmlns:svg="http://www.w3.org/2000/svg">
  <defs
     id="defs1" />
  <sodipodi:namedview
     id="namedview1"
     pagecolor="#ffffff"
     bordercolor="#000000"
     borderopacity="0.25"
     inkscape:showpageshadow="2"
     inkscape:pageopacity="0.0"
     inkscape:pagecheckerboard="0"
     inkscape:deskcolor="#d1d1d1">
    <inkscape:page
       x="0"
       y="0"
       width="376.15027"
       height="346.84235"
       id="page2"
       margin="0"
       bleed="0" />
  </sodipodi:namedview>
  <g
     inkscape:groupmode="layer"
     inkscape:label="Image"
     id="g1"
     transform="translate(-0.3587057,-1.0065171)">
    <path
       style="fill:#020202;stroke:none"
       d="m 36.390747,1.2465285 c -16.61167,2.81238 -17.71037,24.5012495 -19.42438,37.5169725 -5.16927,39.25397 8.81467,77.603999 -7.8e-4,116.999999 -4.53027,20.24567 -18.4392998,35.6243 -16.40508983,57 1.61866003,17.009 5.31145003,33.3335 12.26928983,49 30.44575,68.55255 108.810633,85.17725 175.560973,86.01852 19.3114,0.24338 37.8193,-0.0123 57,-3.62963 70.92379,-13.37577 134.72085,-67.12647 130.95986,-144.38889 -0.50152,-10.30267 -8.30438,-18.61957 -11.89505,-28 -6.03488,-15.76588 -8.68631,-34.17746 -9.0108,-51 -0.54281,-28.141049 7.14713,-55.649229 4.11188,-84.000002 -1.15549,-10.7927 -2.46069,-24.13806 -11.20911,-31.7723695 -9.15484,-7.98898 -22.10006,-2.004 -30.95678,3.38736 -14.40674,8.7698295 -27.22553,21.3917795 -38.98536,33.3842525 -5.49759,5.60635 -11.69275,14.97275 -19.01849,18.22763 -3.79626,1.6867 -8.4404,-1.09439 -11.99615,-2.41593 -8.0658,-2.99771 -16.57425,-4.93862 -25,-6.61111 -22.52817,-4.47177 -46.48531,-4.30255 -69,0.19986 -7.73783,1.54739 -15.56472,3.35818 -23,6.03549 -3.38682,1.21951 -8.31722,4.26175 -12,3.15817 -6.42515,-1.92535 -12.42516,-10.99734 -17.00077,-15.59335 C 88.497736,31.813728 75.052346,18.168588 59.390747,8.5744385 c -6.56372,-4.02087 -14.98313,-8.68518003 -23,-7.32791 z"
       id="path1" />
  </g>
</svg>
